<?xml version="1.0" encoding="UTF-8" standalone="no"?>
<!-- Created with Inkscape (http://www.inkscape.org/) -->

<svg
   xmlns:dc="http://purl.org/dc/elements/1.1/"
   xmlns:cc="http://creativecommons.org/ns#"
   xmlns:rdf="http://www.w3.org/1999/02/22-rdf-syntax-ns#"
   xmlns:svg="http://www.w3.org/2000/svg"
   xmlns="http://www.w3.org/2000/svg"
   xmlns:xlink="http://www.w3.org/1999/xlink"
   xmlns:sodipodi="http://sodipodi.sourceforge.net/DTD/sodipodi-0.dtd"
   xmlns:inkscape="http://www.inkscape.org/namespaces/inkscape"
   width="210mm"
   height="297mm"
   viewBox="0 0 210 297"
   version="1.1"
   id="svg1586"
   inkscape:export-filename="/home/hd/src/Programmierspiel/web/core/static/core/bytewerk_tv_150w.png"
   inkscape:export-xdpi="31.190001"
   inkscape:export-ydpi="31.190001"
   inkscape:version="0.92.2 (5c3e80d, 2017-08-06)"
   sodipodi:docname="tvlogo.svg">
  <defs
     id="defs1580">
    <linearGradient
       inkscape:collect="always"
       id="linearGradient2285">
      <stop
         style="stop-color:#808080;stop-opacity:1"
         offset="0"
         id="stop2281" />
      <stop
         style="stop-color:#d1d1d1;stop-opacity:1"
         offset="1"
         id="stop2283" />
    </linearGradient>
    <linearGradient
       inkscape:collect="always"
       xlink:href="#linearGradient2285"
       id="linearGradient2287"
       x1="8.1418991"
       y1="110.44595"
       x2="133.24341"
       y2="10.754415"
       gradientUnits="userSpaceOnUse" />
  </defs>
  <sodipodi:namedview
     id="base"
     pagecolor="#ffffff"
     bordercolor="#666666"
     borderopacity="1.0"
     inkscape:pageopacity="0.0"
     inkscape:pageshadow="2"
     inkscape:zoom="0.98994949"
     inkscape:cx="401.43808"
     inkscape:cy="835.30268"
     inkscape:document-units="mm"
     inkscape:current-layer="layer1"
     showgrid="false"
     inkscape:window-width="1920"
     inkscape:window-height="1020"
     inkscape:window-x="0"
     inkscape:window-y="0"
     inkscape:window-maximized="1" />
  <metadata
     id="metadata1583">
    <rdf:RDF>
      <cc:Work
         rdf:about="">
        <dc:format>image/svg+xml</dc:format>
        <dc:type
           rdf:resource="http://purl.org/dc/dcmitype/StillImage" />
        <dc:title></dc:title>
      </cc:Work>
    </rdf:RDF>
  </metadata>
  <g
     inkscape:label="Ebene 1"
     inkscape:groupmode="layer"
     id="layer1">
    <g
       id="g2259"
       style="fill:url(#linearGradient2287);fill-opacity:1">
      <path
         id="path3009"
         transform="scale(0.26458333)"
         d="M 144.51562 86.853516 C 122.45863 86.853516 104.51467 104.79752 104.51367 126.85352 L 104.51367 560.52734 C 104.51367 582.58633 122.45863 600.53125 144.51562 600.53125 L 526.22852 600.53125 C 548.28452 600.53125 566.22656 582.58633 566.22656 560.52734 L 566.22656 126.85352 C 566.22656 104.79752 548.28452 86.853516 526.22852 86.853516 L 144.51562 86.853516 z M 161.54492 107.62305 L 512.05078 107.62305 C 532.06478 107.62305 548.28906 123.84737 548.28906 143.85938 L 548.28906 442.4043 C 548.28906 462.41829 532.0638 478.64063 512.05078 478.64062 L 161.54492 478.64062 C 141.53093 478.64062 125.30859 462.41731 125.30859 442.4043 L 125.30859 143.85938 C 125.30859 123.84638 141.53192 107.62305 161.54492 107.62305 z "
         style="fill:url(#linearGradient2287);stroke-width:0.99999994;fill-opacity:1" />
      <path
         inkscape:connector-curvature="0"
         d="m 122.17589,99.571987 c -0.3601,0 -0.65246,0.2921 -0.65379,0.651933 -10e-4,0.42836 -0.14499,10.49443 -10.49364,10.49443 -0.36062,0 -0.65325,0.29237 -0.65325,0.65326 0,0.36116 0.29236,0.65379 0.65325,0.65379 11.66575,0 11.80042,-11.68268 11.80042,-11.80042 0,-0.360363 -0.29184,-0.652728 -0.65246,-0.652728 h -5.3e-4 z"
         id="path3017"
         style="fill:url(#linearGradient2287);fill-opacity:1;stroke-width:0.26458332" />
      <path
         inkscape:connector-curvature="0"
         d="m 131.46488,94.312071 c -0.39211,0 -0.71041,0.317764 -0.71041,0.710142 0,0.112712 -0.0852,11.350627 -7.49723,18.736207 -4.31059,4.29471 -10.2526,6.4717 -17.66491,6.4717 -0.0458,0 -0.091,0 -0.13784,0 -0.39132,0 -0.70856,0.31618 -0.71041,0.7075 -10e-4,0.39211 0.31565,0.7112 0.70829,0.71305 0.0466,0 0.0937,0 0.13996,0 7.80177,0 14.08139,-2.31642 18.66742,-6.88551 7.82531,-7.79807 7.91527,-19.25876 7.91527,-19.742947 2.7e-4,-0.392378 -0.31776,-0.710142 -0.71014,-0.710142 z"
         id="path3019"
         style="fill:url(#linearGradient2287);fill-opacity:1;stroke-width:0.26458332" />
      <path
         inkscape:connector-curvature="0"
         d="m 112.33577,104.50012 c 0.0302,0.007 0.0603,0.009 0.0902,0.0108 0.12409,0.38656 0.34396,0.75169 0.64532,1.05569 0.49715,0.50139 1.16417,0.7882 1.8288,0.7882 0.55033,0 1.05939,-0.19844 1.43325,-0.5588 0.38232,-0.36804 0.5961,-0.87683 0.60245,-1.43272 0.007,-0.65008 -0.27013,-1.30704 -0.76173,-1.80261 -0.38497,-0.38788 -0.87154,-0.64585 -1.3798,-0.74374 l -1.50945,-12.498919 c 2.32383,-3.655748 3.6621,-7.36018 3.69782,-10.532269 0.0259,-2.298171 -0.65829,-4.2164 -1.97909,-5.547783 -1.34567,-1.356784 -3.32105,-2.074069 -5.71262,-2.074069 -1.83462,0 -3.85286,0.410104 -5.94227,1.173162 l -4.799809,-4.838435 3.322369,-3.201723 5.05646,5.097198 24.502,-23.616179 -13.87872,-13.990108 -24.502532,23.615121 5.386123,5.429779 -3.322108,3.201722 -9.98564,-10.066601 -0.103981,0.09975 c -0.0079,-0.0085 -0.01508,-0.01799 -0.02328,-0.02672 -0.901171,-0.90858 -2.21615,-1.389063 -3.802327,-1.389063 -3.422915,0 -7.817379,2.185988 -11.468894,5.70521 -3.692525,3.558646 -6.010275,7.876382 -6.048375,11.268604 -0.0172,1.526911 0.441854,2.805907 1.327679,3.698875 0.0056,0.0056 0.01217,0.01032 0.01746,0.01587 l -0.102923,0.09922 9.820804,9.900179 -3.491442,3.366029 -5.221023,-5.262827 -24.503326,23.616177 13.878983,13.99064 24.503327,-23.616179 -5.221023,-5.263092 3.491971,-3.3655 5.118893,5.160433 c -0.719931,1.919288 -1.115483,3.77534 -1.134798,5.477669 -0.02593,2.298435 0.658548,4.216659 1.979084,5.547779 1.3462,1.35652 3.321579,2.07407 5.712618,2.07407 3.180027,0 6.909594,-1.23058 10.61085,-3.40069 z m -10.63969,-3.59199 c 1.73831,-1.119449 3.45546,-2.440513 5.09138,-3.933557 l 5.7486,5.768707 c 0.0114,0.0114 0.0241,0.0193 0.036,0.0294 -0.11668,0.20691 -0.19473,0.43551 -0.2331,0.67786 z m 11.62076,1.12581 c -0.0106,-0.0124 -0.019,-0.0259 -0.031,-0.0378 l -5.72426,-5.744633 c 0.0135,-0.01297 0.0273,-0.0254 0.0405,-0.03836 1.84018,-1.773237 3.45837,-3.666067 4.81198,-5.592233 l 1.35625,11.227596 c -0.16007,0.0434 -0.31141,0.10635 -0.4535,0.18548 z"
         id="path3021"
         style="fill:url(#linearGradient2287);stroke-width:0.26458332;fill-opacity:1" />
    </g>
    <path
       id="text2824"
       d="m 60.005684,131.10503 v 13.88718 c 0,0.38524 0.06297,0.7628 0.19738,1.11496 0.134408,0.33734 0.318822,0.62574 0.557477,0.88238 0.238654,0.25691 0.522816,0.46699 0.836083,0.6268 0.313531,0.14473 0.651933,0.22807 1.010179,0.24342 h 0.01164 5.910527 0.278606 v -0.0228 c 0.327819,-0.0315 0.642144,-0.12964 0.940858,-0.28998 0.298186,-0.16034 0.545571,-0.37015 0.754857,-0.62706 0.208756,-0.25691 0.379677,-0.53816 0.499004,-0.8591 0.134408,-0.32121 0.197379,-0.66411 0.197379,-1.03347 H 69.58598 c 0,0.30427 -0.104775,0.56542 -0.313796,0.78926 -0.194468,0.20928 -0.445029,0.31379 -0.743479,0.31379 h -5.910262 c -0.283634,-0.0161 -0.51435,-0.12753 -0.70829,-0.33655 -0.193939,-0.22437 -0.290512,-0.49609 -0.290512,-0.80142 v -6.32883 c 0,-0.32068 0.09631,-0.5805 0.290512,-0.78952 0.208756,-0.2241 0.456142,-0.33655 0.754856,-0.33655 h 8.53493 v -1.73011 H 62.66448 62.60654 c -0.179123,0 -0.358246,0.0214 -0.522553,0.0701 -0.149489,0.0315 -0.300302,0.0825 -0.464608,0.16246 v -4.93528 h -1.614223 v 2.7e-4 z m 72.144466,0 v 0.0116 H 120.41085 108.55514 96.699424 84.843709 72.535028 v 1.67164 h 12.308681 11.855715 11.855716 11.85571 11.7393 v 10.81061 0.22093 4.04045 h 1.61369 v -3.43694 -0.75459 c 0.0299,-0.27279 0.14209,-0.50403 0.33735,-0.69718 0.20875,-0.19235 0.43947,-0.28998 0.70802,-0.28998 h 5.8756 c 0.29845,0 0.53711,0.11245 0.73211,0.33628 0.20849,0.20876 0.31353,0.48075 0.31353,0.80143 v 4.04045 h 1.61422 v -4.04045 c 0,-0.40191 -0.0632,-0.76571 -0.19738,-1.10305 -0.13441,-0.33682 -0.33046,-0.63765 -0.56885,-0.89456 0.23839,-0.27278 0.43471,-0.57996 0.56885,-0.91731 0.13415,-0.33655 0.19738,-0.69453 0.19738,-1.07976 v -4.07538 h -1.61422 v 4.07538 c 0,0.30453 -0.10478,0.56541 -0.31353,0.78951 -0.19474,0.2249 -0.43366,0.33655 -0.73211,0.33655 h -4.64423 -1.23137 c -0.38841,0 -0.73131,0.0759 -1.04537,0.2204 v -10.00945 -0.0577 h -1.61369 z m -97.248926,0.0228 v 7.46628 0.0929 6.30528 c 0,0.40164 0.07461,0.78502 0.209021,1.13798 0.148961,0.33734 0.341842,0.63685 0.580496,0.89402 0.23839,0.25691 0.51091,0.45535 0.824442,0.61569 0.328348,0.1442 0.683683,0.22013 1.056745,0.22013 h 5.863961 c 0.358246,0 0.696648,-0.0759 1.010179,-0.22013 0.328348,-0.16034 0.609071,-0.35878 0.847725,-0.61569 0.238389,-0.25717 0.423069,-0.55668 0.557212,-0.89402 0.148961,-0.35296 0.23204,-0.73634 0.23204,-1.13798 v -6.30528 c 0,-0.38444 -0.08281,-0.74242 -0.23204,-1.07977 -0.134408,-0.35295 -0.318823,-0.66013 -0.557212,-0.91731 -0.238654,-0.25691 -0.519377,-0.45931 -0.847725,-0.60404 -0.313796,-0.16034 -0.652198,-0.23204 -1.010179,-0.23204 h -5.863961 c -0.388408,0 -0.743479,0.0643 -1.056745,0.20929 v -4.93501 h -1.613959 z m 12.552363,4.70324 v 9.16146 c 0,0.38523 0.07461,0.76279 0.209285,1.11495 0.14949,0.35349 0.341577,0.66014 0.580496,0.91731 0.238389,0.25691 0.511175,0.45562 0.824177,0.61595 0.328612,0.1442 0.683683,0.22014 1.056746,0.22014 h 5.86396 c 0.358246,0 0.701675,-0.0831 1.045369,-0.24368 v 2.10132 c 0,0.30506 -0.09657,0.558 -0.290777,0.76676 -0.16219,0.18865 -0.355071,0.29501 -0.580231,0.33655 H 45.746495 34.877941 v 1.75286 h 10.868554 10.288058 0.174361 v -0.0111 c 0.291041,-0.0339 0.564356,-0.11033 0.824177,-0.24421 0.328348,-0.1442 0.620712,-0.34687 0.859102,-0.60351 0.238919,-0.25718 0.423069,-0.56383 0.557212,-0.91731 0.134409,-0.33682 0.197379,-0.6948 0.197379,-1.0803 v -4.72599 -1.55628 -7.60518 h -1.613958 v 7.60518 1.55628 c 0,0.32094 -0.104775,0.60008 -0.313531,0.82418 -0.19394,0.20902 -0.433123,0.31406 -0.731838,0.31406 h -5.86396 c -0.29845,0 -0.557477,-0.10451 -0.766498,-0.31406 -0.193939,-0.22437 -0.289983,-0.50324 -0.289983,-0.82418 v -9.16146 h -1.613429 z m 27.763787,0 c -0.372798,0 -0.728663,0.0717 -1.056481,0.23204 -0.313532,0.14472 -0.585788,0.34713 -0.824442,0.60351 -0.23839,0.25691 -0.431536,0.56436 -0.580231,0.91784 -0.134409,0.35348 -0.19738,0.71861 -0.19738,1.10305 v 6.30502 c 0,0.4019 0.06297,0.78555 0.19738,1.13824 0.14896,0.33734 0.341841,0.63685 0.580231,0.89349 0.238919,0.25691 0.511175,0.45615 0.824442,0.61569 0.327818,0.14499 0.683683,0.22013 1.056481,0.22013 h 5.86396 c 0.357717,0 0.704586,-0.0759 1.033727,-0.22013 0.327819,-0.15981 0.609071,-0.35878 0.847725,-0.61569 0.23839,-0.25664 0.423069,-0.55668 0.557213,-0.89349 0.14896,-0.35269 0.232039,-0.73634 0.232039,-1.13824 h -1.614223 c 0,0.32094 -0.104775,0.60007 -0.313795,0.82418 -0.19394,0.20902 -0.44503,0.31406 -0.743215,0.31406 h -5.86396 c -0.298715,0 -0.557213,-0.10451 -0.766234,-0.31406 -0.194204,-0.22437 -0.290248,-0.50324 -0.290248,-0.82418 v -2.27621 h 6.920442 c 0.357717,0 0.696912,-0.0765 1.010179,-0.22014 0.313267,-0.14446 0.586052,-0.33946 0.824442,-0.58023 0.238654,-0.24077 0.431006,-0.51567 0.580496,-0.83608 0.148695,-0.33681 0.240241,-0.70644 0.255323,-1.09167 v -1.32398 c 0,-0.38444 -0.08281,-0.74242 -0.23204,-1.07976 -0.134408,-0.35295 -0.318823,-0.66014 -0.557477,-0.91784 -0.238654,-0.25638 -0.519642,-0.45879 -0.847725,-0.60351 -0.328613,-0.16034 -0.675746,-0.23204 -1.033198,-0.23204 z m 9.881923,0 2.693987,9.19665 c 0.10451,0.36936 0.230452,0.7276 0.394758,1.07976 0.164042,0.33735 0.356394,0.64506 0.580496,0.91731 0.223573,0.25691 0.4826,0.45562 0.766234,0.61595 0.298979,0.1442 0.645583,0.22014 1.033991,0.22014 h 0.104246 0.116152 c 0.373063,0 0.7112,-0.0759 1.009915,-0.22014 0.298714,-0.16033 0.553773,-0.35904 0.778139,-0.61595 0.223309,-0.27225 0.407459,-0.5797 0.557213,-0.91731 0.163777,-0.35216 0.302154,-0.7104 0.4064,-1.07976 l 1.858168,-6.3635 1.85764,6.3635 c 0.104775,0.36936 0.242888,0.7276 0.406929,1.07976 0.163513,0.33735 0.356394,0.64506 0.580231,0.91731 0.223838,0.25691 0.4826,0.45562 0.766234,0.61595 0.29845,0.1442 0.633941,0.22014 1.02235,0.22014 h 0.11615 0.11589 c 0.37253,0 0.69929,-0.0759 0.99854,-0.22014 0.29792,-0.16033 0.56488,-0.35904 0.78898,-0.61595 0.22358,-0.27225 0.40826,-0.5797 0.55748,-0.91731 0.16431,-0.35216 0.30189,-0.7104 0.40667,-1.07976 l 2.7051,-9.19665 h -1.68328 l -2.68235,9.19665 c -0.0902,0.28919 -0.22754,0.5416 -0.40666,0.7657 -0.16378,0.22569 -0.38656,0.33735 -0.68475,0.33735 h -0.11588 -0.11615 c -0.299513,0 -0.529172,-0.11192 -0.708824,-0.33735 -0.163512,-0.2241 -0.293687,-0.47731 -0.382587,-0.7657 l -2.693988,-9.19665 h -1.672166 l -2.693723,9.19665 c -0.09102,0.28919 -0.2159,0.5416 -0.395288,0.7657 -0.164306,0.22569 -0.398462,0.33735 -0.696912,0.33735 h -0.115888 -0.104775 c -0.299508,0 -0.540808,-0.11192 -0.719666,-0.33735 -0.164571,-0.2241 -0.294481,-0.47731 -0.383646,-0.7657 l -2.682346,-9.19665 z m 24.616833,0 c -0.3728,0 -0.72866,0.0717 -1.05648,0.23204 -0.31353,0.14472 -0.58605,0.34713 -0.82444,0.60351 -0.23839,0.25691 -0.4318,0.56436 -0.58023,0.91784 -0.13494,0.35348 -0.19765,0.71861 -0.19765,1.10305 v 6.30502 c 0,0.4019 0.0627,0.78555 0.19765,1.13824 0.14869,0.33734 0.34184,0.63685 0.58023,0.89349 0.23839,0.25691 0.51117,0.45615 0.82444,0.61569 0.32782,0.14499 0.68368,0.22013 1.05648,0.22013 h 5.8637 c 0.35824,0 0.70485,-0.0759 1.03399,-0.22013 0.32755,-0.15981 0.60907,-0.35878 0.84746,-0.61569 0.23865,-0.25664 0.42333,-0.55668 0.55721,-0.89349 0.1487,-0.35269 0.2323,-0.73634 0.2323,-1.13824 h -1.61422 c 0,0.32094 -0.10424,0.60007 -0.31353,0.82418 -0.19447,0.20902 -0.44503,0.31406 -0.74374,0.31406 h -5.8637 c -0.29871,0 -0.55695,-0.10451 -0.76623,-0.31406 -0.19421,-0.22437 -0.29025,-0.50324 -0.29025,-0.82418 v -2.27621 h 6.92018 c 0.35824,0 0.69717,-0.0765 1.01044,-0.22014 0.31353,-0.14446 0.58605,-0.33946 0.82444,-0.58023 0.23839,-0.24077 0.43127,-0.51567 0.58023,-0.83608 0.1487,-0.33681 0.24051,-0.70644 0.25585,-1.09167 v -1.32398 c 0,-0.38444 -0.0833,-0.74242 -0.2323,-1.07976 -0.13414,-0.35295 -0.31856,-0.66014 -0.55721,-0.91784 -0.23839,-0.25691 -0.51991,-0.45879 -0.84746,-0.60351 -0.32861,-0.16034 -0.67601,-0.23204 -1.03399,-0.23204 z m 12.55263,0 c -0.3728,0 -0.72867,0.0717 -1.05648,0.23204 -0.31433,0.14472 -0.58606,0.34713 -0.82445,0.60351 -0.23865,0.25691 -0.4318,0.56436 -0.58049,0.91784 -0.13441,0.33734 -0.20929,0.70194 -0.20929,1.10305 v 9.17337 h 1.61449 v -9.17337 c 0,-0.32068 0.0952,-0.58023 0.29025,-0.78952 0.20902,-0.2241 0.46752,-0.33655 0.76623,-0.33655 h 5.86449 c 0.29766,0 0.53631,0.11218 0.73131,0.33655 0.20876,0.20929 0.31353,0.46884 0.31353,0.78952 h 1.61422 c 0,-0.40111 -0.0717,-0.76571 -0.22013,-1.10305 -0.13494,-0.35295 -0.31909,-0.66014 -0.55774,-0.91784 -0.23892,-0.25638 -0.51911,-0.45879 -0.84773,-0.60351 -0.32834,-0.16034 -0.67521,-0.23204 -1.03293,-0.23204 z m -84.696567,1.73011 h 5.86396 c 0.29845,0 0.549275,0.11218 0.74348,0.33655 0.208756,0.20928 0.313531,0.46884 0.313531,0.78951 v 6.30502 c 0,0.32094 -0.104775,0.60008 -0.313531,0.82418 -0.19394,0.20902 -0.444765,0.31406 -0.74348,0.31406 h -5.86396 c -0.298715,0 -0.557212,-0.10451 -0.766498,-0.31406 -0.193675,-0.22437 -0.290248,-0.50324 -0.290248,-0.82418 v -6.30502 -0.0466 c 0.01482,-0.30454 0.119327,-0.55695 0.313796,-0.76624 0.208756,-0.20796 0.459052,-0.31326 0.74295,-0.31326 z m 37.645181,0 h 5.86396 c 0.29845,0 0.549011,0.11218 0.743479,0.33655 0.209021,0.20928 0.313796,0.46884 0.313796,0.78951 v 1.20756 c -0.01535,0.3048 -0.127529,0.55801 -0.33655,0.7665 -0.194204,0.20823 -0.436562,0.3138 -0.720196,0.3138 h -6.920177 v -2.28786 c 0,-0.32067 0.09578,-0.58023 0.289984,-0.78951 0.208491,-0.22463 0.467254,-0.33655 0.765704,-0.33655 z m 34.498756,0 h 5.8637 c 0.29871,0 0.54927,0.11218 0.74374,0.33655 0.20876,0.20928 0.31353,0.46884 0.31353,0.78951 v 1.20756 c -0.0153,0.3048 -0.12726,0.55801 -0.33655,0.7665 -0.19473,0.20823 -0.43709,0.3138 -0.72046,0.3138 h -6.92018 v -2.28786 c 0,-0.32067 0.0958,-0.58023 0.29025,-0.78951 0.20902,-0.22463 0.46726,-0.33655 0.76597,-0.33655 z"
       inkscape:connector-curvature="0"
       style="stroke-width:0.26458332" />
    <path
       style="fill:none;stroke-width:0.26458332"
       id="path3013"
       d="m 107.60211,96.213367 c -0.0135,0.01296 -0.0272,0.0254 -0.0405,0.03836 l 5.72426,5.744633 c 0.0119,0.0119 0.0204,0.0254 0.031,0.0378 0.14209,-0.0791 0.29343,-0.14208 0.4535,-0.18547 l -1.35625,-11.227601 c -1.35361,1.925902 -2.9718,3.818996 -4.81198,5.592234 z"
       inkscape:connector-curvature="0" />
    <path
       style="fill:none;stroke-width:0.26458332"
       id="path3015"
       d="m 112.53579,102.74355 -5.7486,-5.768713 c -1.63618,1.493044 -3.35306,2.813844 -5.09137,3.933563 l 10.64286,2.54238 c 0.0384,-0.24209 0.11615,-0.47069 0.2331,-0.67786 -0.0119,-0.0101 -0.0246,-0.018 -0.036,-0.0294 z"
       inkscape:connector-curvature="0" />
  </g>
</svg>
