<?xml version="1.0" encoding="UTF-8" standalone="no"?>
<!-- Created with Inkscape (http://www.inkscape.org/) -->

<svg
   xmlns:dc="http://purl.org/dc/elements/1.1/"
   xmlns:cc="http://creativecommons.org/ns#"
   xmlns:rdf="http://www.w3.org/1999/02/22-rdf-syntax-ns#"
   xmlns:svg="http://www.w3.org/2000/svg"
   xmlns="http://www.w3.org/2000/svg"
   xmlns:xlink="http://www.w3.org/1999/xlink"
   xmlns:sodipodi="http://sodipodi.sourceforge.net/DTD/sodipodi-0.dtd"
   xmlns:inkscape="http://www.inkscape.org/namespaces/inkscape"
   width="210mm"
   height="297mm"
   viewBox="0 0 210 297"
   version="1.1"
   id="svg1586"
   inkscape:export-filename="/home/hd/src/Programmierspiel/web/core/static/core/bytewerk_tv_150w.png"
   inkscape:export-xdpi="31.190001"
   inkscape:export-ydpi="31.190001"
   inkscape:version="0.92.2 (5c3e80d, 2017-08-06)"
   sodipodi:docname="tvlogo2.svg">
  <defs
     id="defs1580">
    <linearGradient
       inkscape:collect="always"
       id="linearGradient2285">
      <stop
         style="stop-color:#808080;stop-opacity:1"
         offset="0"
         id="stop2281" />
      <stop
         style="stop-color:#d1d1d1;stop-opacity:1"
         offset="1"
         id="stop2283" />
    </linearGradient>
    <linearGradient
       inkscape:collect="always"
       xlink:href="#linearGradient2285"
       id="linearGradient939"
       gradientUnits="userSpaceOnUse"
       x1="8.1418991"
       y1="110.44595"
       x2="133.24341"
       y2="10.754415" />
    <linearGradient
       inkscape:collect="always"
       xlink:href="#linearGradient2285"
       id="linearGradient941"
       gradientUnits="userSpaceOnUse"
       x1="8.1418991"
       y1="110.44595"
       x2="133.24341"
       y2="10.754415" />
    <linearGradient
       inkscape:collect="always"
       xlink:href="#linearGradient2285"
       id="linearGradient943"
       gradientUnits="userSpaceOnUse"
       x1="8.1418991"
       y1="110.44595"
       x2="133.24341"
       y2="10.754415" />
    <linearGradient
       inkscape:collect="always"
       xlink:href="#linearGradient2285"
       id="linearGradient945"
       gradientUnits="userSpaceOnUse"
       x1="8.1418991"
       y1="110.44595"
       x2="133.24341"
       y2="10.754415" />
  </defs>
  <sodipodi:namedview
     id="base"
     pagecolor="#ffffff"
     bordercolor="#666666"
     borderopacity="1.0"
     inkscape:pageopacity="0.0"
     inkscape:pageshadow="2"
     inkscape:zoom="0.7"
     inkscape:cx="520.08723"
     inkscape:cy="544.53977"
     inkscape:document-units="mm"
     inkscape:current-layer="layer1"
     showgrid="false"
     inkscape:window-width="1920"
     inkscape:window-height="1020"
     inkscape:window-x="0"
     inkscape:window-y="0"
     inkscape:window-maximized="1"
     showguides="true"
     inkscape:guide-bbox="true" />
  <metadata
     id="metadata1583">
    <rdf:RDF>
      <cc:Work
         rdf:about="">
        <dc:format>image/svg+xml</dc:format>
        <dc:type
           rdf:resource="http://purl.org/dc/dcmitype/StillImage" />
        <dc:title></dc:title>
      </cc:Work>
    </rdf:RDF>
  </metadata>
  <g
     inkscape:label="Ebene 1"
     inkscape:groupmode="layer"
     id="layer1">
    <path
       style="fill:url(#linearGradient939);fill-opacity:1;stroke-width:0.99999994"
       d="m 144.51562,86.853516 c -22.05698,0 -40.00095,17.944004 -40.00195,40.000004 v 421.67382 c 0,22.05899 17.94497,40.00391 40.00195,40.00391 h 381.7129 c 22.056,0 39.99804,-17.94492 39.99804,-40.00391 V 126.85352 c 0,-22.056 -17.94204,-40.000004 -39.99804,-40.000004 z m 17.0293,20.769534 h 350.50586 c 20.014,0 36.23828,16.22432 36.23828,36.23633 V 442.4043 c 0,20.01399 -16.22526,36.23632 -36.23828,36.23632 H 161.54492 c -20.01399,0 -36.23633,-16.22331 -36.23633,-36.23632 V 143.85938 c 0,-20.013 16.22333,-36.23633 36.23633,-36.23633 z m 380.61719,370.31836 c 2.31634,0.0839 3.55851,2.76104 2.12695,4.58398 -15.81433,20.76862 -28.91644,34.32435 -37.35351,70.36328 -0.76502,3.24556 -5.5317,2.73628 -5.59375,-0.59765 -0.21268,-12.61297 -9.15258,-28.98151 -18.27735,-36.05274 -3.05481,-2.30894 0.48125,-6.86607 3.47657,-4.48047 8.02726,6.22073 15.11554,17.05605 18.43945,28.32422 8.72107,-28.29354 21.04528,-42.92798 34.79883,-60.99023 0.55563,-0.75334 1.44732,-1.18384 2.38281,-1.15039 z m -35.21094,9.40429 c 3.01115,-0.0692 4.03822,3.9844 1.35742,5.35742 -10.81742,5.67424 -19.29887,11.34686 -29.75,15.67383 l 0.12696,56.21875 -5.66797,0.0156 -0.1211,-54.08985 c -8.33144,2.81534 -18.15656,4.76285 -31.23828,5.28125 -3.90343,0.28875 -4.13477,-5.64614 -0.2207,-5.66211 32.7473,-1.29769 42.96405,-11.29876 64.23633,-22.45703 0.39322,-0.21166 0.83089,-0.32744 1.27734,-0.33789 z m -291.48633,30.45899 h 4.48828 v 13.72656 c 0.45702,-0.22246 0.87717,-0.36349 1.29297,-0.45117 0.45702,-0.13569 0.9549,-0.19531 1.45313,-0.19531 h 0.16016 23.74218 v 4.8125 h -23.74023 c -0.83087,0 -1.51895,0.31219 -2.09961,0.93554 -0.54016,0.58137 -0.8086,1.3053 -0.8086,2.19727 v 17.60351 c 0,0.8493 0.26916,1.60441 0.8086,2.22852 0.53944,0.58122 1.18177,0.89095 1.9707,0.93555 h 16.43946 c 0.83012,0 1.52549,-0.28901 2.0664,-0.8711 0.58138,-0.62264 0.87305,-1.349 0.87305,-2.19531 h 4.49023 c 0,1.02739 -0.17691,1.9796 -0.55078,2.87305 -0.33191,0.89268 -0.80606,1.67603 -1.38672,2.39062 -0.58212,0.7146 -1.2702,1.29816 -2.09961,1.74414 -0.83087,0.44602 -1.70536,0.71896 -2.61718,0.80664 v 0.0625 h -0.77539 -16.43946 -0.0332 c -0.99646,-0.0427 -1.93846,-0.27318 -2.81055,-0.67578 -0.87135,-0.44451 -1.6604,-1.02954 -2.32422,-1.74414 -0.66381,-0.71384 -1.17691,-1.51677 -1.55078,-2.45508 -0.37387,-0.9795 -0.54883,-2.03003 -0.54883,-3.10156 z m 200.66797,0 h 4.49024 v 0.16015 27.8418 c 0.87356,-0.40176 1.82587,-0.61328 2.90625,-0.61328 h 3.42578 12.91797 c 0.83013,0 1.49351,-0.31195 2.03515,-0.9375 0.58069,-0.62336 0.87305,-1.34828 0.87305,-2.19531 v -11.33594 h 4.49023 v 11.33594 c 0,1.07149 -0.17578,2.06779 -0.54882,3.0039 -0.37312,0.93835 -0.91895,1.79204 -1.58204,2.55078 0.66309,0.71456 1.20824,1.55142 1.58204,2.48829 0.37322,0.9383 0.54882,1.95045 0.54882,3.06836 v 11.23828 h -4.49023 v -11.23828 c 0,-0.89197 -0.29312,-1.64787 -0.87305,-2.22852 -0.5424,-0.62241 -1.20502,-0.93555 -2.03515,-0.93555 H 423.5293 c -0.74699,0 -1.38814,0.27165 -1.96875,0.80664 -0.54312,0.53726 -0.85435,1.18072 -0.9375,1.93946 v 2.09765 9.56055 h -4.49024 v -11.23828 -0.61524 -30.07031 h -32.65234 -32.97656 -32.97657 -32.97656 -34.23633 v -4.64844 h 34.23633 32.97656 32.97657 32.97656 32.65234 z m -270.49609,0.0644 h 4.48828 v 13.72656 c 0.87135,-0.40335 1.8591,-0.58203 2.93945,-0.58203 H 169.375 c 0.99572,0 1.93773,0.2005 2.81055,0.64649 0.91329,0.40259 1.6936,0.96509 2.35742,1.67968 0.66308,0.71535 1.17691,1.56906 1.55078,2.55078 0.41509,0.93835 0.64453,1.93461 0.64453,3.00391 v 17.53906 c 0,1.11716 -0.2302,2.18233 -0.64453,3.16407 -0.37311,0.9383 -0.8877,1.77296 -1.55078,2.48828 -0.66382,0.71459 -1.44413,1.26495 -2.35742,1.71094 -0.87209,0.40103 -1.81409,0.61328 -2.81055,0.61328 h -16.31055 c -1.03767,0 -2.02615,-0.21217 -2.93945,-0.61328 -0.87208,-0.44599 -1.62989,-0.99635 -2.29297,-1.71094 -0.66381,-0.71532 -1.19895,-1.54998 -1.61328,-2.48828 -0.37386,-0.98174 -0.58203,-2.04691 -0.58203,-3.16407 v -17.53906 -0.25781 z m 34.91406,13.08203 h 4.48828 v 25.48242 c 0,0.89269 0.26721,1.6689 0.80664,2.29297 0.5814,0.58292 1.30073,0.87305 2.13086,0.87305 h 16.31055 c 0.83088,0 1.49766,-0.29164 2.03711,-0.87305 0.58064,-0.62332 0.87109,-1.40028 0.87109,-2.29297 v -4.32812 -21.1543 h 4.49024 v 21.1543 4.32812 13.14453 c 0,1.07226 -0.17691,2.069 -0.55078,3.00586 -0.37312,0.98321 -0.88428,1.83543 -1.54883,2.55079 -0.66308,0.71383 -1.47733,1.27856 -2.39063,1.67968 -0.72269,0.37236 -1.48148,0.58363 -2.29101,0.67774 v 0.0312 h -0.48633 -28.61524 -30.23046 v -4.875 h 30.23046 28.97266 c 0.62628,-0.11554 1.16215,-0.41275 1.61328,-0.9375 0.54018,-0.58065 0.8086,-1.28431 0.8086,-2.13282 v -5.84374 c -0.95599,0.44684 -1.91175,0.67773 -2.90821,0.67773 h -16.31054 c -1.03768,0 -2.02347,-0.21216 -2.9375,-0.61328 -0.87062,-0.44595 -1.62989,-0.9983 -2.29297,-1.71289 -0.66455,-0.71532 -1.19943,-1.56754 -1.61524,-2.55078 -0.37459,-0.97954 -0.58203,-2.03007 -0.58203,-3.10157 z m 77.22461,0 h 16.30859 c 0.99425,0 1.96097,0.19855 2.875,0.64453 0.91256,0.40252 1.69361,0.96657 2.35743,1.67969 0.66381,0.71683 1.17691,1.57101 1.55078,2.55273 0.41509,0.93831 0.64453,1.93461 0.64453,3.00391 v 3.68164 c -0.042,1.0715 -0.29539,2.10028 -0.70899,3.03711 -0.4158,0.89121 -0.95142,1.65648 -1.61523,2.32617 -0.66308,0.6697 -1.42162,1.21148 -2.29297,1.61328 -0.87135,0.39954 -1.81556,0.61133 -2.81055,0.61133 h -19.24804 v 6.33203 c 0,0.89269 0.26646,1.6689 0.80664,2.29297 0.58139,0.58292 1.29998,0.87305 2.13086,0.87305 h 16.31054 c 0.8294,0 1.52892,-0.29164 2.06836,-0.87305 0.58138,-0.62335 0.87305,-1.40028 0.87305,-2.29297 h 4.49023 c 0,1.11787 -0.23215,2.18501 -0.64648,3.16602 -0.37312,0.93683 -0.88575,1.77054 -1.54883,2.48437 -0.66381,0.7146 -1.44755,1.26838 -2.35937,1.7129 -0.91551,0.40137 -1.88002,0.61328 -2.875,0.61328 h -16.31055 c -1.03694,0 -2.02568,-0.20998 -2.9375,-0.61328 -0.87135,-0.44376 -1.63037,-0.9983 -2.29492,-1.7129 -0.66308,-0.71383 -1.19895,-1.54607 -1.61328,-2.48437 -0.37387,-0.98101 -0.54883,-2.04815 -0.54883,-3.16602 v -17.53711 c 0,-1.0693 0.17496,-2.08515 0.54883,-3.06836 0.41359,-0.98319 0.9502,-1.83813 1.61328,-2.55273 0.66381,-0.71312 1.42283,-1.27717 2.29492,-1.67969 0.91182,-0.44587 1.90056,-0.64453 2.9375,-0.64453 z m 27.48633,0 h 4.68164 l 7.46094,25.58008 c 0.24801,0.80213 0.60865,1.50754 1.0664,2.13086 0.49749,0.62691 1.16888,0.9375 2.00196,0.9375 h 0.29296 0.32227 c 0.83014,0 1.48048,-0.30972 1.9375,-0.9375 0.49897,-0.62332 0.84642,-1.3265 1.09961,-2.13086 l 7.49219,-25.58008 h 4.65234 l 7.49219,25.58008 c 0.24727,0.80213 0.60965,1.50754 1.06445,2.13086 0.4997,0.62691 1.13761,0.9375 1.97071,0.9375 h 0.32421 0.32227 c 0.82941,0 1.44874,-0.30972 1.9043,-0.9375 0.49822,-0.62332 0.87997,-1.3265 1.13086,-2.13086 l 7.46093,-25.58008 h 4.68164 l -7.52343,25.58008 c -0.29145,1.02735 -0.67384,2.02437 -1.13086,3.00391 -0.41506,0.93906 -0.9289,1.79351 -1.55078,2.55078 -0.62334,0.71459 -1.36665,1.26694 -2.19532,1.71289 -0.83236,0.40104 -1.74115,0.61328 -2.77734,0.61328 h -0.32227 -0.32226 c -1.08036,0 -2.01362,-0.21216 -2.84375,-0.61328 -0.78893,-0.44595 -1.50826,-0.9983 -2.13086,-1.71289 -0.6226,-0.75727 -1.16043,-1.61244 -1.61524,-2.55078 -0.45628,-0.97954 -0.83942,-1.97656 -1.13086,-3.00391 l -5.16796,-17.69922 -5.16797,17.69922 c -0.28996,1.02735 -0.67532,2.02437 -1.13086,3.00391 -0.41654,0.93906 -0.9277,1.79351 -1.54883,2.55078 -0.62407,0.71459 -1.33319,1.26694 -2.16406,1.71289 -0.83088,0.40104 -1.77288,0.61328 -2.81055,0.61328 h -0.32227 -0.29101 c -1.08036,0 -2.04339,-0.21216 -2.875,-0.61328 -0.78893,-0.44595 -1.50899,-0.9983 -2.13086,-1.71289 -0.62334,-0.75727 -1.15895,-1.61244 -1.61523,-2.55078 -0.45702,-0.97954 -0.80698,-1.97656 -1.09766,-3.00391 z m 68.47266,0 h 16.30859 c 0.9957,0 1.96097,0.19855 2.875,0.64453 0.91105,0.40252 1.69434,0.9651 2.35742,1.67969 0.66384,0.71683 1.17579,1.57101 1.54883,2.55273 0.41442,0.93831 0.64648,1.93461 0.64648,3.00391 v 3.68164 c -0.0426,1.0715 -0.2973,2.10028 -0.71093,3.03711 -0.41432,0.89121 -0.95021,1.65648 -1.61329,2.32617 -0.66308,0.6697 -1.42091,1.21148 -2.29296,1.61328 -0.87136,0.39954 -1.81413,0.61133 -2.81055,0.61133 h -19.25 v 6.33203 c 0,0.89269 0.26838,1.6689 0.80859,2.29297 0.58209,0.58292 1.30001,0.87305 2.13086,0.87305 h 16.31055 c 0.83084,0 1.52743,-0.29164 2.06836,-0.87305 0.58219,-0.62335 0.87109,-1.40028 0.87109,-2.29297 h 4.49024 c 0,1.11787 -0.23289,2.18501 -0.64649,3.16602 -0.37239,0.93683 -0.88503,1.77054 -1.54883,2.48437 -0.66308,0.7146 -1.44636,1.26838 -2.35742,1.7129 -0.9155,0.40137 -1.88053,0.61328 -2.87695,0.61328 h -16.30859 c -1.03692,0 -2.02761,-0.20998 -2.93946,-0.61328 -0.87137,-0.44376 -1.62989,-0.9983 -2.29297,-1.7129 -0.66308,-0.71383 -1.19968,-1.54607 -1.61328,-2.48437 -0.37549,-0.98101 -0.55078,-2.04815 -0.55078,-3.16602 v -17.53711 c 0,-1.0693 0.17547,-2.08515 0.55078,-3.06836 0.41288,-0.98319 0.9502,-1.83813 1.61328,-2.55273 0.66308,-0.71312 1.42088,-1.27717 2.29297,-1.67969 0.91185,-0.44587 1.90254,-0.64453 2.93946,-0.64453 z m 34.91406,0 h 16.31445 c 0.995,0 1.9598,0.19855 2.87305,0.64453 0.91408,0.40252 1.69287,0.96657 2.35742,1.67969 0.6638,0.71683 1.17743,1.57101 1.55273,2.55273 0.41273,0.93831 0.61133,1.95269 0.61133,3.06836 h -4.49023 c 0,-0.89196 -0.29045,-1.6151 -0.8711,-2.19726 -0.5424,-0.62427 -1.20721,-0.93555 -2.03515,-0.93555 h -16.31055 c -0.83085,0 -1.55141,0.31223 -2.13281,0.93555 -0.54236,0.58216 -0.80664,1.3053 -0.80664,2.19726 v 25.51563 h -4.49024 v -25.51563 c 0,-1.11567 0.20824,-2.13005 0.58203,-3.06836 0.41356,-0.98319 0.94949,-1.83813 1.61329,-2.55273 0.66311,-0.71312 1.42064,-1.27717 2.29492,-1.67969 0.91181,-0.44587 1.90055,-0.64453 2.9375,-0.64453 z m -235.58203,4.8125 c -0.78966,0 -1.48576,0.29268 -2.06641,0.8711 -0.5409,0.58216 -0.83181,1.2838 -0.87305,2.13085 v 0.12891 17.53906 c 0,0.89269 0.26794,1.66694 0.80664,2.29102 0.58213,0.58292 1.30194,0.875 2.13282,0.875 h 16.31054 c 0.83088,0 1.52892,-0.2936 2.06836,-0.875 0.58065,-0.62332 0.8711,-1.39833 0.8711,-2.29102 v -17.53906 c 0,-0.89193 -0.29044,-1.61319 -0.8711,-2.19531 -0.54018,-0.62393 -1.23822,-0.93555 -2.06836,-0.93555 z m 104.70898,0 c -0.83013,0 -1.54899,0.31076 -2.12891,0.93555 -0.54017,0.58212 -0.80664,1.30338 -0.80664,2.19531 v 6.36524 h 19.24805 c 0.78893,0 1.46373,-0.29388 2.00391,-0.87305 0.5814,-0.57993 0.89284,-1.28503 0.93554,-2.13281 v -3.35938 c 0,-0.89193 -0.29165,-1.61319 -0.87304,-2.19531 -0.54092,-0.62393 -1.23823,-0.93555 -2.06836,-0.93555 z m 95.95899,0 c -0.83086,0 -1.5495,0.31076 -2.13086,0.93555 -0.54089,0.58212 -0.8086,1.30338 -0.8086,2.19531 v 6.36524 h 19.25 c 0.78818,0 1.46226,-0.29388 2.00391,-0.87305 0.58234,-0.57993 0.89284,-1.28503 0.93555,-2.13281 v -3.35938 c 0,-0.89193 -0.29237,-1.61319 -0.87305,-2.19531 -0.54093,-0.62393 -1.23752,-0.93555 -2.06836,-0.93555 z"
       transform="scale(0.26458333)"
       id="path3009"
       inkscape:connector-curvature="0"
       sodipodi:nodetypes="scsssssssssssssssscccccccccccccccccccccccscccscssccsccccccccccccccscccccscscsccscccsccscsscccccccccccccccccccccccsscccsscccsscccscccccscsscscccccsccccccccccccscsscccscsscccsccccscscssccccccsscccsscccsccccscsccccccscsccccccccscscccccccccscscccccsscccsccccscscssccccccsscccsscccsssccccccsscsccscccsscccscsscsscssscscsccscssscscsccscss"
       inkscape:export-xdpi="31.190001"
       inkscape:export-ydpi="31.190001" />
    <path
       style="fill:url(#linearGradient941);fill-opacity:1;stroke-width:0.26458332"
       id="path3017"
       d="m 122.17589,99.571987 c -0.3601,0 -0.65246,0.2921 -0.65379,0.651933 -10e-4,0.42836 -0.14499,10.49443 -10.49364,10.49443 -0.36062,0 -0.65325,0.29237 -0.65325,0.65326 0,0.36116 0.29236,0.65379 0.65325,0.65379 11.66575,0 11.80042,-11.68268 11.80042,-11.80042 0,-0.360363 -0.29184,-0.652728 -0.65246,-0.652728 h -5.3e-4 z"
       inkscape:connector-curvature="0"
       inkscape:export-xdpi="31.190001"
       inkscape:export-ydpi="31.190001" />
    <path
       style="fill:url(#linearGradient943);fill-opacity:1;stroke-width:0.26458332"
       id="path3019"
       d="m 131.46488,94.312071 c -0.39211,0 -0.71041,0.317764 -0.71041,0.710142 0,0.112712 -0.0852,11.350627 -7.49723,18.736207 -4.31059,4.29471 -10.2526,6.4717 -17.66491,6.4717 -0.0458,0 -0.091,0 -0.13784,0 -0.39132,0 -0.70856,0.31618 -0.71041,0.7075 -10e-4,0.39211 0.31565,0.7112 0.70829,0.71305 0.0466,0 0.0937,0 0.13996,0 7.80177,0 14.08139,-2.31642 18.66742,-6.88551 7.82531,-7.79807 7.91527,-19.25876 7.91527,-19.742947 2.7e-4,-0.392378 -0.31776,-0.710142 -0.71014,-0.710142 z"
       inkscape:connector-curvature="0"
       inkscape:export-xdpi="31.190001"
       inkscape:export-ydpi="31.190001" />
    <path
       style="fill:url(#linearGradient945);fill-opacity:1;stroke-width:0.26458332"
       id="path3021"
       d="m 112.33577,104.50012 c 0.0302,0.007 0.0603,0.009 0.0902,0.0108 0.12409,0.38656 0.34396,0.75169 0.64532,1.05569 0.49715,0.50139 1.16417,0.7882 1.8288,0.7882 0.55033,0 1.05939,-0.19844 1.43325,-0.5588 0.38232,-0.36804 0.5961,-0.87683 0.60245,-1.43272 0.007,-0.65008 -0.27013,-1.30704 -0.76173,-1.80261 -0.38497,-0.38788 -0.87154,-0.64585 -1.3798,-0.74374 l -1.50945,-12.498919 c 2.32383,-3.655748 3.6621,-7.36018 3.69782,-10.532269 0.0259,-2.298171 -0.65829,-4.2164 -1.97909,-5.547783 -1.34567,-1.356784 -3.32105,-2.074069 -5.71262,-2.074069 -1.83462,0 -3.85286,0.410104 -5.94227,1.173162 l -4.799809,-4.838435 3.322369,-3.201723 5.05646,5.097198 24.502,-23.616179 -13.87872,-13.990108 -24.502532,23.615121 5.386123,5.429779 -3.322108,3.201722 -9.98564,-10.066601 -0.103981,0.09975 c -0.0079,-0.0085 -0.01508,-0.01799 -0.02328,-0.02672 -0.901171,-0.90858 -2.21615,-1.389063 -3.802327,-1.389063 -3.422915,0 -7.817379,2.185988 -11.468894,5.70521 -3.692525,3.558646 -6.010275,7.876382 -6.048375,11.268604 -0.0172,1.526911 0.441854,2.805907 1.327679,3.698875 0.0056,0.0056 0.01217,0.01032 0.01746,0.01587 l -0.102923,0.09922 9.820804,9.900179 -3.491442,3.366029 -5.221023,-5.262827 -24.503326,23.616177 13.878983,13.99064 24.503327,-23.616179 -5.221023,-5.263092 3.491971,-3.3655 5.118893,5.160433 c -0.719931,1.919288 -1.115483,3.77534 -1.134798,5.477669 -0.02593,2.298435 0.658548,4.216659 1.979084,5.547779 1.3462,1.35652 3.321579,2.07407 5.712618,2.07407 3.180027,0 6.909594,-1.23058 10.61085,-3.40069 z m -10.63969,-3.59199 c 1.73831,-1.119449 3.45546,-2.440513 5.09138,-3.933557 l 5.7486,5.768707 c 0.0114,0.0114 0.0241,0.0193 0.036,0.0294 -0.11668,0.20691 -0.19473,0.43551 -0.2331,0.67786 z m 11.62076,1.12581 c -0.0106,-0.0124 -0.019,-0.0259 -0.031,-0.0378 l -5.72426,-5.744633 c 0.0135,-0.01297 0.0273,-0.0254 0.0405,-0.03836 1.84018,-1.773237 3.45837,-3.666067 4.81198,-5.592233 l 1.35625,11.227596 c -0.16007,0.0434 -0.31141,0.10635 -0.4535,0.18548 z"
       inkscape:connector-curvature="0"
       inkscape:export-xdpi="31.190001"
       inkscape:export-ydpi="31.190001" />
    <path
       style="fill:none;stroke-width:0.26458332"
       id="path3013"
       d="m 107.60211,96.213367 c -0.0135,0.01296 -0.0272,0.0254 -0.0405,0.03836 l 5.72426,5.744633 c 0.0119,0.0119 0.0204,0.0254 0.031,0.0378 0.14209,-0.0791 0.29343,-0.14208 0.4535,-0.18547 l -1.35625,-11.227601 c -1.35361,1.925902 -2.9718,3.818996 -4.81198,5.592234 z"
       inkscape:connector-curvature="0"
       inkscape:export-xdpi="31.190001"
       inkscape:export-ydpi="31.190001" />
    <path
       style="fill:none;stroke-width:0.26458332"
       id="path3015"
       d="m 112.53579,102.74355 -5.7486,-5.768713 c -1.63618,1.493044 -3.35306,2.813844 -5.09137,3.933563 l 10.64286,2.54238 c 0.0384,-0.24209 0.11615,-0.47069 0.2331,-0.67786 -0.0119,-0.0101 -0.0246,-0.018 -0.036,-0.0294 z"
       inkscape:connector-curvature="0"
       inkscape:export-xdpi="31.190001"
       inkscape:export-ydpi="31.190001" />
  </g>
</svg>
